<?xml version="1.0" encoding="UTF-8" standalone="no"?>
<svg
   xmlns:dc="http://purl.org/dc/elements/1.1/"
   xmlns:cc="http://creativecommons.org/ns#"
   xmlns:rdf="http://www.w3.org/1999/02/22-rdf-syntax-ns#"
   xmlns:svg="http://www.w3.org/2000/svg"
   xmlns="http://www.w3.org/2000/svg"
   xmlns:sodipodi="http://sodipodi.sourceforge.net/DTD/sodipodi-0.dtd"
   xmlns:inkscape="http://www.inkscape.org/namespaces/inkscape"
   width="20.981426mm"
   height="5.0270834mm"
   viewBox="0 0 20.981426 5.0270833"
   version="1.1"
   id="svg8"
   sodipodi:docname="logo.svg"
   inkscape:version="1.0.2 (e86c870879, 2021-01-15, custom)">
  <sodipodi:namedview
     pagecolor="#ffffff"
     bordercolor="#666666"
     borderopacity="1"
     objecttolerance="10"
     gridtolerance="10"
     guidetolerance="10"
     inkscape:pageopacity="0"
     inkscape:pageshadow="2"
     inkscape:window-width="1920"
     inkscape:window-height="1052"
     id="namedview838"
     showgrid="false"
     inkscape:zoom="4"
     inkscape:cx="5.4337931"
     inkscape:cy="34.066523"
     inkscape:window-x="0"
     inkscape:window-y="28"
     inkscape:window-maximized="0"
     inkscape:current-layer="svg8"
     inkscape:document-rotation="0"
     fit-margin-top="0"
     fit-margin-left="0"
     fit-margin-right="0"
     fit-margin-bottom="0" />
  <defs
     id="defs2" />
  <metadata
     id="metadata5">
    <rdf:RDF>
      <cc:Work
         rdf:about="">
        <dc:format>image/svg+xml</dc:format>
        <dc:type
           rdf:resource="http://purl.org/dc/dcmitype/StillImage" />
        <dc:title />
      </cc:Work>
    </rdf:RDF>
  </metadata>
  <g
     id="layer1-3"
     transform="translate(-33.507871,-102.21178)"
     style="fill:#4d4d4d" />
  <g
     id="g1272"
     transform="translate(0,-0.0159672)"
     style="fill:#ececec">
    <path
       id="path991"
       style="fill:#ececec;fill-opacity:1;stroke-width:0.535718;stroke-linecap:round;stop-color:#000000"
       d="M 5.8208333,1.0743005 A 1.3229166,1.3229166 0 0 0 4.4979166,2.3972172 1.3229166,1.3229166 0 0 0 5.8208333,3.7201338 1.3229166,1.3229166 0 0 0 6.6145833,3.4550337 V 5.0430506 H 7.1437499 V 2.3972172 1.0743005 H 6.6145833 v 0.2645833 a 1.3229166,1.3229166 0 0 0 -0.79375,-0.2645833 z m -0.013436,0.5291667 a 0.79374999,0.79374999 0 0 1 0.013436,0 0.79374999,0.79374999 0 0 1 0.79375,0.7803142 0.79374999,0.79374999 0 0 1 0,0.013436 0.79374999,0.79374999 0 0 1 -0.79375,0.7937499 0.79374999,0.79374999 0 0 1 -0.79375,-0.7937499 0.79374999,0.79374999 0 0 1 0.780314,-0.7937502 z" />
    <path
       id="path991-6"
       style="fill:#ececec;fill-opacity:1;stroke-width:0.535718;stroke-linecap:round;stop-color:#000000"
       d="M 7.7522605,1.0743005 V 2.3972172 A 1.3229166,1.3229166 0 0 0 9.0751772,3.7201338 1.3229166,1.3229166 0 0 0 10.398094,2.3972172 V 1.0743005 H 9.8689272 v 1.3229167 a 0.79374999,0.79374999 0 0 1 -0.79375,0.79375 0.79374999,0.79374999 0 0 1 -0.79375,-0.79375 V 1.0743005 Z" />
    <path
       id="rect1036"
       style="fill:#ececec;fill-opacity:1;stroke-width:0.718084;stroke-linecap:round;stop-color:#000000"
       d="m 10.92726,0.0159672 v 0.5291666 h 0.529167 V 0.0159672 Z m 0,1.0583333 v 2.6458333 h 0.529167 V 1.0743005 Z" />
    <path
       id="path991-7"
       style="fill:#ececec;fill-opacity:1;stroke-width:0.535718;stroke-linecap:round;stop-color:#000000"
       d="m 13.308512,1.0743005 a 1.3229166,1.3229166 0 0 0 -1.322917,1.3229167 1.3229166,1.3229166 0 0 0 1.322917,1.3229166 1.3229166,1.3229166 0 0 0 1.322916,-1.3229166 1.3229166,1.3229166 0 0 0 -1.322916,-1.3229167 z m 0,0.5291667 a 0.79374999,0.79374999 0 0 1 0.79375,0.79375 0.79374999,0.79374999 0 0 1 -0.79375,0.79375 0.79374999,0.79374999 0 0 1 -0.79375,-0.79375 0.79374999,0.79374999 0 0 1 0.79375,-0.79375 z" />
    <path
       id="path991-0"
       style="fill:#ececec;fill-opacity:1;stroke-width:0.535718;stroke-linecap:round;stop-color:#000000"
       d="m 19.658511,1.0743005 a 1.3229166,1.3229166 0 0 0 -1.322917,1.3229167 1.3229166,1.3229166 0 0 0 1.322917,1.3229166 1.3229166,1.3229166 0 0 0 0.79375,-0.2651 v 0.2651 h 0.529166 V 2.3972172 1.0743005 h -0.529166 v 0.2645834 a 1.3229166,1.3229166 0 0 0 -0.79375,-0.2645834 z m -0.01395,0.5291667 a 0.79374999,0.79374999 0 0 1 0.01395,0 0.79374999,0.79374999 0 0 1 0.79375,0.7797972 0.79374999,0.79374999 0 0 1 0,0.013953 0.79374999,0.79374999 0 0 1 -0.79375,0.79375 0.79374999,0.79374999 0 0 1 -0.79375,-0.79375 0.79374999,0.79374999 0 0 1 0.779797,-0.79375 z" />
    <path
       id="path991-0-3"
       style="fill:#ececec;fill-opacity:1;stroke-width:0.535718;stroke-linecap:round;stop-color:#000000"
       d="m 16.483511,1.0743005 a 1.3229166,1.3229166 0 0 0 -1.322916,1.3229167 1.3229166,1.3229166 0 0 0 1.322916,1.3229166 V 3.1909672 A 0.79374999,0.79374999 0 0 1 15.735753,2.6618005 h 1.496033 0.320911 0.226859 a 1.3229166,1.3229166 0 0 0 0.02687,-0.2645833 1.3229166,1.3229166 0 0 0 -1.322917,-1.3229167 z m -0.01344,0.5291667 a 0.79374999,0.79374999 0 0 1 0.01344,0 0.79374999,0.79374999 0 0 1 0.747758,0.5291667 h -1.496033 a 0.79374999,0.79374999 0 0 1 0.734839,-0.5291667 z" />
  </g>
  <g
     id="g1700"
     transform="translate(-0.19926929,-0.26371765)">
    <circle
       style="fill:#85c7b8;fill-opacity:1;stroke-width:0.705771;stroke-linecap:round;stop-color:#000000"
       id="path1423-3-2-2"
       cx="2.1836443"
       cy="2.7772593"
       r="1.984375" />
    <circle
       style="fill:#efd94a;fill-opacity:1;stroke-width:0.658719;stroke-linecap:round;stop-color:#000000"
       id="path1423-3-2"
       cx="2.0770588"
       cy="2.8577623"
       r="1.8520833" />
    <circle
       style="fill:#dd7e7f;fill-opacity:1;stroke-width:0.611666;stroke-linecap:round;stop-color:#000000"
       id="path1423-9"
       cx="-0.55204046"
       cy="3.6217372"
       r="1.7197917"
       transform="rotate(-45)" />
    <path
       id="rect1653"
       style="fill:#ffffff;fill-opacity:1;stroke:none;stroke-width:0.386524;stroke-linecap:square;stroke-miterlimit:4;stroke-dasharray:none;stroke-opacity:1;stop-color:#000000"
       d="M 0.68389281,2.9715663 1.3387032,3.6263766 1.8064249,4.0940983 2.2741465,3.6263766 3.4902228,2.4103003 3.0225012,1.9425787 1.8064249,3.158655 1.1516145,2.5038446 Z" />
  </g>
</svg>
